HIERARCHY
ROOT Hips
{
OFFSET -0.1795 -22.3333 2.8219000000000003
	CHANNELS 6 Xposition Yposition Zposition Zrotation Yrotation Xrotation 
	JOINT LeftUpLeg
	{
OFFSET 6.952 -9.140600000000001 -0.6815
		CHANNELS 3 Zrotation Yrotation Xrotation
		JOINT LeftLeg
		{
OFFSET 3.4277 -37.5199 -0.4496
			CHANNELS 3 Zrotation Yrotation Xrotation
			JOINT LeftFoot
			{
OFFSET -1.3596000000000001 -39.7961 -4.3693
				CHANNELS 3 Zrotation Yrotation Xrotation
				JOINT LeftToe
				{
OFFSET 2.6358 -5.5791 11.9288
					CHANNELS 3 Zrotation Yrotation Xrotation
					End Site
					{
OFFSET 0.0 0.0 0.0
					}
				}
			}
		}
	}
	JOINT RightUpLeg
	{
OFFSET -6.7669999999999995 -9.052200000000001 -0.432
		CHANNELS 3 Zrotation Yrotation Xrotation
		JOINT RightLeg
		{
OFFSET -3.8289999999999997 -38.2569 -0.885
			CHANNELS 3 Zrotation Yrotation Xrotation
			JOINT RightFoot
			{
OFFSET 1.5774 -39.8415 -4.2312
				CHANNELS 3 Zrotation Yrotation Xrotation
				JOINT RightToe
				{
OFFSET -2.5372 -4.8144 12.3348
					CHANNELS 3 Zrotation Yrotation Xrotation
					End Site
					{
OFFSET 0.0 0.0 0.0
					}
				}
			}
		}
	}
	JOINT Spine
	{
OFFSET -0.2533 10.8963 -2.6696
		CHANNELS 3 Zrotation Yrotation Xrotation
		JOINT Spine1
		{
OFFSET 0.5487 13.517999999999999 0.1092
			CHANNELS 3 Zrotation Yrotation Xrotation
			JOINT Spine2
			{
OFFSET 0.1457 5.292199999999999 2.5425
				CHANNELS 3 Zrotation Yrotation Xrotation
				JOINT Neck
				{
OFFSET -0.2778 21.387 -4.2857
					CHANNELS 3 Zrotation Yrotation Xrotation
					JOINT Head
					{
OFFSET 0.5152 6.497 5.1349
						CHANNELS 3 Zrotation Yrotation Xrotation
						End Site
						{
OFFSET 0.0 0.0 0.0
						}
					}
				}
				JOINT LeftShoulder
				{
OFFSET 7.8845 12.1749 -3.4090000000000003
					CHANNELS 3 Zrotation Yrotation Xrotation
					JOINT LeftArm
					{
OFFSET 9.0977 3.0469 -0.8867999999999999
						CHANNELS 3 Zrotation Yrotation Xrotation
						JOINT LeftForeArm
						{
OFFSET 25.9612 -1.2772000000000001 -2.7456
							CHANNELS 3 Zrotation Yrotation Xrotation
							JOINT LeftHand
							{
OFFSET 24.9234 0.8986 -0.1171
								CHANNELS 3 Zrotation Yrotation Xrotation
								End Site
								{
OFFSET 0.0 0.0 0.0
								}
							}
						}
					}
				}
				JOINT RightShoulder
				{
OFFSET -8.1759 11.8833 -3.8614999999999995
					CHANNELS 3 Zrotation Yrotation Xrotation
					JOINT RightArm
					{
OFFSET -9.6012 3.2550999999999997 -0.9143
						CHANNELS 3 Zrotation Yrotation Xrotation
						JOINT RightForeArm
						{
OFFSET -25.374200000000002 -1.3329 -2.1401
							CHANNELS 3 Zrotation Yrotation Xrotation
							JOINT RightHand
							{
OFFSET -25.5298 0.7772 -0.5559
								CHANNELS 3 Zrotation Yrotation Xrotation
								End Site
								{
OFFSET 0.0 0.0 0.0
								}
							}
						}
					}
				}
			}
		}
	}
}
MOTION
Frames: 11
Frame Time: 0.050000
0.0 82.583 0.0 1.695826 -24.034343 4.893643 14.031238 8.343957 -49.284405 -17.440328 13.613161 46.768401 12.442344 23.392592 1.059977 0.000000 0.000000 0.000000 -6.179148 3.635982 -30.679331 21.172231 -3.264182 55.976377 -11.566879 -32.056346 -19.005284 0.000000 0.000000 0.000000 2.597364 2.029264 48.074946 -5.198973 1.373871 -25.572704 -4.324826 7.053699 25.527241 9.095961 -3.236212 -31.488907 0.000000 0.000000 0.000000 -26.144159 -17.283381 10.332718 -21.845805 -9.523127 -2.571931 16.498476 -43.380795 -4.832900 0.000000 0.000000 0.000000 37.453510 9.911702 3.425553 24.838247 17.965438 -0.498455 -10.399228 51.747035 -3.076098 0.000000 0.000000 0.000000
-0.0771 82.0981 1.9739 1.383234 -23.922109 3.542056 15.474343 9.125238 -49.027573 -19.689412 12.830705 40.212792 14.298466 24.589415 11.791217 0.000000 0.000000 0.000000 -7.215977 3.254150 -29.531056 23.360168 -4.611734 59.778398 -12.825373 -34.771992 -12.934289 0.000000 0.000000 0.000000 1.611142 2.982068 51.790418 -5.633857 1.436507 -29.384787 -1.911660 7.486995 27.994486 9.225920 -2.674120 -35.253907 0.000000 0.000000 0.000000 -28.338136 -17.558280 10.531442 -20.383201 -9.396451 -2.527165 15.874271 -42.661233 -4.633174 0.000000 0.000000 0.000000 37.632741 7.718418 2.381142 24.967841 18.765725 -0.638195 -9.937947 53.506073 -2.884577 0.000000 0.000000 0.000000
-0.022000000000000002 81.14240000000001 4.4135 2.279135 -22.293495 2.286275 14.811028 8.177321 -48.779425 -22.169023 12.558785 35.546358 18.350151 29.384462 15.511353 0.000000 0.000000 0.000000 -10.645928 2.014539 -24.282306 26.085873 -6.497937 56.760149 -13.709354 -39.407836 -17.616976 0.000000 0.000000 0.000000 0.203194 3.602863 53.700892 -5.557703 1.412271 -28.070857 -3.038107 6.743378 25.910671 8.904926 -2.735981 -32.907777 0.000000 0.000000 0.000000 -26.435823 -18.290765 10.384541 -22.446471 -10.333081 -2.432696 16.448669 -39.634248 -4.415844 0.000000 0.000000 0.000000 40.979009 7.534735 2.314283 23.623417 18.569780 -0.633115 -9.034126 54.177642 -2.467955 0.000000 0.000000 0.000000
0.1872 80.4851 7.217 1.588145 -21.911479 2.360936 14.978851 7.750863 -47.300730 -22.993602 12.781423 34.683599 20.244822 31.647538 16.376193 0.000000 0.000000 0.000000 -11.183677 1.852471 -23.345549 26.993327 -7.315118 58.187964 -14.288151 -40.849184 -16.610476 0.000000 0.000000 0.000000 -0.364798 3.854098 54.143746 -4.834860 1.276101 -29.621493 -4.298188 8.427654 27.853117 11.577636 -3.672640 -34.308890 0.000000 0.000000 0.000000 -26.779623 -19.326362 10.512689 -20.014659 -10.467591 -2.217658 16.990647 -37.057400 -4.464084 0.000000 0.000000 0.000000 41.933315 7.870839 3.720530 24.138832 18.673234 -0.964828 -9.445751 54.276697 -2.522258 0.000000 0.000000 0.000000
0.5738 79.68509999999999 10.3118 1.045648 -21.308913 3.019720 15.794807 8.019399 -47.348448 -25.573880 14.460926 35.709055 24.504142 37.290426 15.520209 0.000000 0.000000 0.000000 -12.247924 1.574270 -20.990683 26.713712 -7.398008 58.275737 -14.503295 -40.506199 -15.285764 0.000000 0.000000 0.000000 -2.171618 4.410388 52.607862 -5.023503 1.313594 -28.491142 -3.381346 8.772946 27.117986 10.669791 -3.114446 -34.078813 0.000000 0.000000 0.000000 -25.793296 -19.125483 10.123201 -21.828032 -11.342007 -2.206401 18.482767 -34.581137 -4.517400 0.000000 0.000000 0.000000 42.447065 7.574168 3.672253 24.451989 17.825199 -1.079072 -8.002841 53.774243 -1.740540 0.000000 0.000000 0.000000
1.1162999999999998 79.2363 13.5777 0.618961 -19.933987 3.535434 16.186514 7.717209 -47.014443 -26.953190 15.729199 37.689016 26.827412 41.030540 13.691925 0.000000 0.000000 0.000000 -12.272252 1.437480 -19.780777 25.723489 -7.496464 59.962986 -14.367957 -38.585347 -12.354732 0.000000 0.000000 0.000000 -3.965676 4.898245 51.787891 -4.358226 1.248481 -28.396616 -3.308524 9.845762 27.632663 9.977041 -1.996931 -37.317460 0.000000 0.000000 0.000000 -24.182001 -20.922693 10.514124 -23.047156 -11.637341 -2.130285 19.209843 -32.569130 -4.486331 0.000000 0.000000 0.000000 41.579405 8.758716 5.583448 26.642053 18.272335 -1.179431 -8.561085 51.853380 -1.698472 0.000000 0.000000 0.000000
1.7932 79.3068 16.9745 0.024144 -17.298755 4.177723 14.695550 6.313004 -47.921262 -25.598760 15.682460 41.529378 27.098451 42.499992 11.886404 0.000000 0.000000 0.000000 -12.119891 1.276100 -19.001166 24.952159 -8.314216 61.944697 -14.554952 -37.216572 -8.180675 0.000000 0.000000 0.000000 -5.239295 4.656410 50.502639 -3.567634 1.111915 -28.188839 -3.873555 10.428249 27.246475 10.163792 -2.036641 -35.985082 0.000000 0.000000 0.000000 -23.535762 -21.196860 10.092126 -22.636884 -12.284660 -1.906480 19.870968 -31.275516 -4.551868 0.000000 0.000000 0.000000 42.844976 9.927387 7.538966 25.356687 18.237330 -1.391032 -7.287517 49.009079 -1.054468 0.000000 0.000000 0.000000
2.5791 79.6645 20.3962 -0.739837 -14.714479 5.261545 13.164745 4.913426 -48.642434 -24.404296 15.547892 45.080151 26.222515 42.656538 9.709129 0.000000 0.000000 0.000000 -12.897837 1.253301 -22.875377 24.064278 -9.995863 69.208858 -13.516502 -31.371541 3.882526 0.000000 0.000000 0.000000 -6.393122 4.364164 48.732270 -3.307351 1.114714 -27.683607 -2.892123 11.320795 26.886535 9.032984 -1.205658 -35.911401 0.000000 0.000000 0.000000 -24.743318 -22.278687 10.289316 -21.144802 -12.787874 -1.622316 19.892849 -30.433480 -4.500330 0.000000 0.000000 0.000000 41.290691 9.404128 7.948964 26.440712 18.859841 -1.446450 -6.747968 46.487745 -0.653784 0.000000 0.000000 0.000000
3.3071 80.2587 23.688699999999997 -1.903722 -10.273577 5.514225 12.221103 3.292666 -49.060270 -23.567577 14.928297 48.459709 24.839607 41.909269 8.184486 0.000000 0.000000 0.000000 -13.374132 0.996407 -26.966000 23.191327 -13.030283 76.174697 -11.106659 -25.355279 12.680220 0.000000 0.000000 0.000000 -6.292379 3.247896 48.709229 -3.279406 1.186810 -27.841815 -1.981769 11.024375 26.423507 9.792393 -1.454433 -35.195573 0.000000 0.000000 0.000000 -25.109803 -22.447548 9.861081 -19.411246 -13.466199 -1.327943 19.703281 -31.062755 -4.627654 0.000000 0.000000 0.000000 40.582140 8.403119 7.797095 27.314752 19.047272 -1.506477 -6.074798 45.257011 -0.262689 0.000000 0.000000 0.000000
3.8902 80.8352 26.8003 -3.427038 -7.111751 5.332957 12.249510 2.400219 -48.250003 -22.745055 14.426727 51.544915 22.897750 40.213835 6.342475 0.000000 0.000000 0.000000 -12.142898 1.095631 -32.894625 22.061621 -14.953258 80.549538 -10.004758 -23.454485 11.726482 0.000000 0.000000 0.000000 -5.968513 2.338840 49.033666 -3.185478 1.222100 -27.625385 -2.308587 10.620869 25.846055 10.324048 -1.667090 -34.633441 0.000000 0.000000 0.000000 -23.583328 -21.822051 9.009102 -19.028537 -13.228166 -1.260479 20.232156 -32.418020 -5.093720 0.000000 0.000000 0.000000 40.284888 8.361704 8.129097 26.821948 19.348765 -1.497506 -7.157579 45.912212 -0.702322 0.000000 0.000000 0.000000
4.3740000000000006 81.4502 29.7836 -4.399500 -3.513013 4.782526 12.028165 1.303889 -46.364149 -22.235854 13.502413 53.270733 21.627263 38.964699 5.453169 0.000000 0.000000 0.000000 -11.853881 0.825646 -39.065045 21.122806 -16.215116 80.432580 -9.820309 -23.233027 9.202408 0.000000 0.000000 0.000000 -5.566941 1.289341 49.619277 -2.232631 1.094933 -28.678010 -2.450105 10.959690 26.628602 10.211992 -1.349553 -34.953090 0.000000 0.000000 0.000000 -24.506268 -21.873672 8.493092 -17.539784 -13.181900 -1.129257 19.902465 -32.815744 -5.164253 0.000000 0.000000 0.000000 39.923916 8.342085 8.981612 25.871886 20.343417 -1.587220 -7.837520 46.388613 -0.981469 0.000000 0.000000 0.000000
